<svg width="20" height="16" viewBox="0 0 20 16" fill="none" xmlns="http://www.w3.org/2000/svg">
<path d="M3.49691e-07 8C3.63595e-07 8.31808 0.129009 8.62312 0.358646 8.84803C0.588282 9.07295 0.899737 9.1993 1.22449 9.1993L15.5706 9.1993L10.2041 13.9022C10.0832 14.0069 9.98458 14.134 9.91398 14.2761C9.84338 14.4183 9.80218 14.5727 9.79273 14.7305C9.78328 14.8883 9.80578 15.0464 9.85894 15.1957C9.91209 15.3449 9.99485 15.4824 10.1025 15.6002C10.2101 15.7181 10.3404 15.8139 10.4859 15.8822C10.6315 15.9505 10.7894 15.99 10.9506 15.9983C11.1117 16.0067 11.273 15.9837 11.4251 15.9308C11.5772 15.8779 11.7171 15.796 11.8368 15.6899L19.5919 8.89388C19.7203 8.78139 19.823 8.64362 19.8933 8.48959C19.9636 8.33556 20 8.16873 20 8C20 7.83127 19.9636 7.66443 19.8933 7.5104C19.823 7.35637 19.7203 7.21861 19.5919 7.10612L11.8368 0.310069C11.7171 0.203997 11.5772 0.122143 11.4251 0.0692161C11.273 0.0162891 11.1117 -0.00666711 10.9506 0.00166773C10.7894 0.0100026 10.6315 0.0494641 10.4859 0.117783C10.3404 0.186101 10.2101 0.281929 10.1025 0.399754C9.99485 0.517579 9.91209 0.655077 9.85894 0.80434C9.80578 0.953602 9.78328 1.11168 9.79273 1.2695C9.80218 1.42731 9.84338 1.58173 9.91398 1.72389C9.98458 1.86604 10.0832 1.99313 10.2041 2.09783L15.5706 6.8007L1.22449 6.8007C1.06369 6.8007 0.904462 6.83172 0.755899 6.89199C0.607337 6.95226 0.47235 7.0406 0.358645 7.15196C0.244941 7.26333 0.154746 7.39554 0.0932091 7.54105C0.0316726 7.68655 3.42807e-07 7.84251 3.49691e-07 8Z" fill="#529EAF"/>
</svg>
